<?xml version="1.0" encoding="UTF-8"?>
<svg version="1.1" xmlns="http://www.w3.org/2000/svg" width="512" height="512">
<path d="M0 0 C3.07344483 0.00314853 6.14591221 -0.02035842 9.21923828 -0.0456543 C27.33914559 -0.10437676 45.30683064 1.52831718 62.91064453 6.00317383 C63.93665771 6.25881104 64.9626709 6.51444824 66.01977539 6.77783203 C109.48725506 17.91950781 149.43373579 39.14596859 181.64404297 70.53344727 C183.46492215 72.30766216 185.30068382 74.06548897 187.13720703 75.82348633 C194.47425717 82.92235277 201.04350829 90.33385311 207.13769531 98.52270508 C208.50597326 100.35974955 209.89299982 102.18156314 211.28173828 104.00317383 C217.64774231 112.42990059 223.27875834 121.12470965 228.47314453 130.31567383 C228.83617676 130.94602539 229.19920898 131.57637695 229.57324219 132.22583008 C244.50941176 158.31636008 253.97557608 187.64718649 258.47314453 217.31567383 C258.65047119 218.42289795 258.82779785 219.53012207 259.01049805 220.67089844 C260.60442806 231.70356131 260.8124552 242.63063691 260.78881836 253.76708984 C260.78567388 256.84940538 260.80915435 259.9307427 260.83447266 263.01293945 C260.89380582 281.30332222 259.20966509 299.36899447 254.66064453 317.12817383 C254.26945435 318.69148437 254.26945435 318.69148437 253.87036133 320.28637695 C244.4939619 356.96804792 227.22385134 390.62318779 202.47314453 419.31567383 C201.83892578 420.06075195 201.20470703 420.80583008 200.55126953 421.57348633 C189.2487355 434.49692641 177.06926904 446.8838951 163.20166016 457.04467773 C161.3860302 458.37972993 159.59325122 459.74204456 157.80126953 461.10864258 C137.36205133 476.57047596 114.50946657 488.50881312 90.47314453 497.31567383 C89.74627441 497.58718262 89.0194043 497.85869141 88.27050781 498.13842773 C74.67899015 503.16576772 60.66497086 506.46501937 46.47314453 509.31567383 C45.13630615 509.58903564 45.13630615 509.58903564 43.77246094 509.86791992 C14.68734002 515.50979341 -18.64424521 514.53217667 -47.52685547 508.31567383 C-49.05463623 507.99421387 -49.05463623 507.99421387 -50.61328125 507.66625977 C-76.46083216 502.08133526 -102.75521544 492.91941467 -124.7355957 477.91943359 C-127.4549423 476.14580777 -129.02964934 475.26947286 -132.31074524 475.57435608 C-135.7168245 476.35946195 -138.84567003 477.41625539 -142.11352539 478.65722656 C-142.74402802 478.8949025 -143.37453064 479.13257843 -144.0241394 479.37745667 C-146.10386913 480.1628829 -148.18054609 480.95607347 -150.25732422 481.74926758 C-151.73087036 482.30731963 -153.20461402 482.86485038 -154.67854309 483.42189026 C-158.57114602 484.89446381 -162.4612671 486.37348356 -166.35083008 487.85406494 C-170.2057648 489.32052097 -174.06260652 490.781938 -177.91943359 492.2434082 C-178.67278551 492.5290243 -179.42613743 492.81464039 -180.20231819 493.10891151 C-183.97377089 494.53852045 -187.74595692 495.96614752 -191.51950073 497.39022827 C-193.00162794 497.94979468 -194.48373466 498.50941534 -195.96582031 499.0690918 C-197.04864697 499.47786088 -197.04864697 499.47786088 -198.15334892 499.89488792 C-202.28483983 501.457597 -206.40714258 503.04169342 -210.52163601 504.64860821 C-213.55689721 505.83117647 -216.59941538 506.99488664 -219.64013672 508.16333008 C-220.70612595 508.58803085 -221.77211517 509.01273163 -222.8704071 509.45030212 C-229.13517268 511.83559013 -234.79581029 513.29260083 -241.52685547 512.31567383 C-246.36544095 509.98598452 -249.19716616 507.15425931 -251.52685547 502.31567383 C-253.08885997 493.35112326 -249.3796742 485.23765722 -246.22607422 477.04614258 C-245.66808199 475.56102282 -245.11153836 474.0753581 -244.55635071 472.58918762 C-243.09050539 468.67722912 -241.60513146 464.7729765 -240.11541748 460.87005615 C-238.64369361 457.00417658 -237.19060886 453.13131709 -235.73583984 449.2590332 C-227.02682733 426.11613221 -227.02682733 426.11613221 -223.00202084 415.85624599 C-221.94587609 413.16198425 -220.89830258 410.46442695 -219.85123634 407.76662636 C-219.12812138 405.91568949 -218.39110911 404.07020089 -217.6537323 402.22489929 C-217.2249025 401.11959366 -216.79607269 400.01428802 -216.35424805 398.87548828 C-215.97528885 397.91705521 -215.59632965 396.95862213 -215.20588684 395.97114563 C-214.24587584 392.21685348 -214.8370279 389.62634621 -216.62060547 386.23754883 C-217.08466797 385.52083008 -217.54873047 384.80411133 -218.02685547 384.06567383 C-234.34762447 357.53955524 -244.80839207 328.07817926 -249.52685547 297.31567383 C-249.70563232 296.1794458 -249.88440918 295.04321777 -250.06860352 293.87255859 C-251.68857267 282.49380863 -251.88508252 271.23408636 -251.83935547 259.75317383 C-251.83720032 258.77979065 -251.83504517 257.80640747 -251.83282471 256.80352783 C-251.78181495 242.44737622 -251.39443359 228.42683769 -248.52685547 214.31567383 C-248.32817871 213.30553223 -248.12950195 212.29539063 -247.92480469 211.25463867 C-235.26107929 148.31544915 -200.23698 87.25624493 -147.52685547 49.31567383 C-146.38020675 48.46390582 -145.23438822 47.6110192 -144.08935547 46.75708008 C-131.05758736 37.13678867 -117.19386989 29.16480144 -102.52685547 22.31567383 C-101.74600586 21.94941895 -100.96515625 21.58316406 -100.16064453 21.20581055 C-68.41823651 6.5018837 -34.84358084 -0.0742523 0 0 Z M-138.52685547 82.31567383 C-139.30802734 82.98598633 -140.08919922 83.65629883 -140.89404297 84.34692383 C-153.33203279 95.27604275 -164.76618443 106.93039185 -174.52685547 120.31567383 C-175.29384766 121.36110352 -176.06083984 122.4065332 -176.85107422 123.48364258 C-205.1163219 163.19310922 -221.01163722 209.96883518 -220.90185547 258.75317383 C-220.90164398 259.62630219 -220.9014325 260.49943054 -220.9012146 261.39901733 C-220.86603866 276.01303673 -219.78440697 290.02867999 -216.52685547 304.31567383 C-216.33961914 305.16274902 -216.15238281 306.00982422 -215.95947266 306.88256836 C-210.41244312 331.40350462 -200.45221112 354.96425515 -186.65576172 375.96801758 C-182.52069865 382.47030941 -180.84430537 386.66134469 -181.52685547 394.31567383 C-182.21523188 397.22637012 -183.24184936 399.93988101 -184.35107422 402.71411133 C-184.64914978 403.49533356 -184.94722534 404.27655579 -185.2543335 405.08145142 C-186.22745066 407.62331514 -187.22082286 410.15672906 -188.21435547 412.69067383 C-188.89377912 414.45568072 -189.57157532 416.22131489 -190.24780273 417.98754883 C-191.6393289 421.61959061 -193.0372082 425.24909271 -194.43896484 428.87719727 C-197.39702376 436.55586239 -200.25242109 444.27241167 -203.10488892 451.99078369 C-204.22026611 455.00792198 -205.33940022 458.02366034 -206.45855713 461.03939819 C-207.48214006 463.79785407 -208.50453789 466.5567488 -209.52685547 469.31567383 C-207.44440041 470.64320463 -207.44440041 470.64320463 -204.70721436 469.46232605 C-202.90235565 468.77521294 -202.90235565 468.77521294 -201.06103516 468.07421875 C-200.39738449 467.82398453 -199.73373383 467.57375031 -199.04997253 467.31593323 C-196.84676422 466.48317828 -194.64783886 465.63965854 -192.44873047 464.79614258 C-190.9192318 464.21587617 -189.38946306 463.63632117 -187.85943604 463.05744934 C-183.82155654 461.52773897 -179.78715654 459.98905391 -175.753479 458.44830322 C-170.86935754 456.58442416 -165.9815225 454.73031289 -161.09395218 452.87550068 C-157.28668537 451.43056192 -153.48008837 449.98394383 -149.67547607 448.5320282 C-148.61968102 448.1298407 -148.61968102 448.1298407 -147.54255676 447.7195282 C-145.64622238 446.99711035 -143.75031032 446.27358419 -141.85443115 445.54997253 C-134.34331064 442.76387021 -128.5084955 440.69602365 -120.83935547 443.81567383 C-118.47545821 445.11536447 -116.21133597 446.51823544 -113.94091797 447.97583008 C-88.58559484 464.18061008 -60.07017382 474.09260971 -30.52685547 479.31567383 C-29.82077148 479.44554687 -29.1146875 479.57541992 -28.38720703 479.70922852 C25.49857315 489.20909199 89.021689 473.38447788 133.65283203 442.36645508 C143.48105877 435.21989131 152.68650856 427.7262069 161.47314453 419.31567383 C162.02615234 418.79521484 162.57916016 418.27475586 163.14892578 417.73852539 C177.96351347 403.751615 189.33681671 387.93250519 199.47314453 370.31567383 C199.83746582 369.69547363 200.20178711 369.07527344 200.57714844 368.4362793 C230.46568451 317.2849461 235.48061986 252.31634721 221.19189453 195.62817383 C210.06505069 153.73586313 186.7049428 111.79926813 152.47314453 84.31567383 C151.50634766 83.51129883 150.53955078 82.70692383 149.54345703 81.87817383 C79.52981482 24.48858098 -25.41898757 13.59223531 -138.52685547 82.31567383 Z " fill="#000000" transform="translate(251.52685546875,-0.315673828125)"/>
<path d="M0 0 C6.03765562 5.33252795 8.427249 11.64513514 10.76953125 19.12890625 C11.26907066 20.67533562 11.26907066 20.67533562 11.77870178 22.25300598 C12.91554104 25.79394601 14.03002181 29.34137163 15.140625 32.890625 C15.55786063 34.2181236 15.97524301 35.54557609 16.39276123 36.87298584 C19.41498201 46.49252723 22.39400806 56.12524604 25.3637085 65.7611084 C26.78244454 70.36239482 28.20480213 74.96256318 29.62716103 79.56273079 C30.78941165 83.3223972 31.94977742 87.08262264 33.10580444 90.84420776 C35.09787718 97.32082359 37.09923448 103.7931859 39.17325878 110.24410915 C40.03038972 112.91052358 40.87990081 115.57934198 41.72931099 118.24822426 C42.31245952 120.06783613 42.90784575 121.88351202 43.50364685 123.69902039 C47.67748833 136.8293819 47.67748833 136.8293819 45.22265625 143.31640625 C40.46545753 150.38633542 40.46545753 150.38633542 36.140625 151.890625 C30.86897081 152.52839021 26.57957321 152.54469237 21.703125 150.328125 C16.73031633 145.59789237 14.50891502 139.73836301 12.5625 133.27734375 C12.34619934 132.58171829 12.12989868 131.88609283 11.90704346 131.16938782 C11.45626771 129.7143057 11.00942559 128.25799949 10.56640625 126.80053711 C9.88636042 124.56410027 9.19423649 122.33167747 8.5 120.09960938 C8.06180113 118.67990302 7.62427647 117.25998835 7.1875 115.83984375 C6.87821564 114.83832527 6.87821564 114.83832527 6.56268311 113.8165741 C5.140625 109.12499811 5.140625 109.12499811 5.140625 106.890625 C4.13128906 107.18195313 3.12195313 107.47328125 2.08203125 107.7734375 C-11.13875995 111.53991614 -24.47760012 114.75086713 -37.859375 117.890625 C-38.05515137 118.97947998 -38.05515137 118.97947998 -38.25488281 120.09033203 C-38.85865699 123.40157344 -39.48378984 126.70843796 -40.109375 130.015625 C-40.31433594 131.15773437 -40.51929688 132.29984375 -40.73046875 133.4765625 C-43.19767723 146.33595213 -43.19767723 146.33595213 -49.546875 150.765625 C-55.03763886 152.63041273 -59.7065997 152.66237463 -65.171875 150.703125 C-68.68708334 148.3324031 -70.96577881 145.67781738 -72.859375 141.890625 C-73.40035426 133.87817668 -72.50709441 126.27146378 -70.99511719 118.42163086 C-70.69751747 116.80690636 -70.69751747 116.80690636 -70.39390564 115.15956116 C-69.74211773 111.6394262 -69.07471845 108.12247104 -68.40625 104.60546875 C-67.94432851 102.13803083 -67.48309734 99.67046359 -67.02252197 97.20277405 C-65.93452427 91.38868937 -64.83559676 85.57674455 -63.73250794 79.76550633 C-62.85729837 75.14957512 -61.99232936 70.53181015 -61.13330078 65.9128418 C-59.94257973 59.51068255 -58.74263048 53.11033273 -57.53470612 46.71139717 C-57.07757191 44.28437744 -56.62309743 41.85685509 -56.17140961 39.42881584 C-55.53713595 36.02748534 -54.89074255 32.62866992 -54.24121094 29.23022461 C-53.96823433 27.7469014 -53.96823433 27.7469014 -53.68974304 26.23361206 C-51.4828465 14.84561602 -48.59603536 4.1311669 -38.546875 -2.67578125 C-25.45592672 -10.23322014 -12.29795556 -7.92534914 0 0 Z M-20.859375 25.890625 C-22.9675682 31.49799038 -23.96141268 37.2176314 -25.0234375 43.08984375 C-25.22037201 44.16184525 -25.41730652 45.23384674 -25.62020874 46.33833313 C-26.03404 48.59635071 -26.44575008 50.85475795 -26.85546875 53.11352539 C-27.48423178 56.577336 -28.12050177 60.03970613 -28.7578125 63.50195312 C-29.15929827 65.69783551 -29.56035484 67.89379643 -29.9609375 70.08984375 C-30.1515274 71.12735275 -30.34211731 72.16486176 -30.53848267 73.23381042 C-30.71221405 74.19523453 -30.88594543 75.15665863 -31.06494141 76.1472168 C-31.29571884 77.41579781 -31.29571884 77.41579781 -31.53115845 78.71000671 C-31.93379442 81.01752561 -31.93379442 81.01752561 -31.859375 83.890625 C-28.85896262 83.26755549 -25.85905057 82.6422239 -22.859375 82.015625 C-22.02019531 81.84160156 -21.18101562 81.66757813 -20.31640625 81.48828125 C-15.13057131 80.40287394 -9.9909879 79.20916443 -4.859375 77.890625 C-5.50938007 71.78351523 -7.16444198 66.20567533 -9.01953125 60.36328125 C-9.32886093 59.37436386 -9.63819061 58.38544647 -9.95689392 57.36656189 C-10.94016475 54.22713666 -11.93090115 51.09012621 -12.921875 47.953125 C-13.59229211 45.81721267 -14.26221933 43.68114651 -14.93164062 41.54492188 C-16.56855099 36.32502849 -18.21158728 31.10709422 -19.859375 25.890625 C-20.189375 25.890625 -20.519375 25.890625 -20.859375 25.890625 Z " fill="#000000" transform="translate(321.859375,87.109375)"/>
<path d="M0 0 C12.23539248 8.63157717 15.51777175 19.40882566 18.4375 33.5625 C18.75658297 35.06105334 19.07695018 36.55933367 19.3984375 38.05737305 C20.14922395 41.56366337 20.89208207 45.07154779 21.63232422 48.58007812 C23.1032909 55.52035002 24.62552648 62.44923765 26.14659309 69.37864876 C27.11584505 73.7986954 28.08004255 78.21984676 29.0440321 82.64104366 C29.85109546 86.34209954 30.65994428 90.04274269 31.47311401 93.74246216 C32.25025652 97.28036652 33.01995339 100.81981754 33.78442192 104.36048126 C34.20796737 106.31355974 34.63880922 108.26505141 35.06983948 110.2164917 C38.04929106 124.08530261 38.04929106 124.08530261 35.875 130.125 C33.07984174 134.41090933 29.95224283 137.34925239 25 139 C19.90242182 139.49976257 16.43522492 138.63935969 11.89453125 136.55859375 C6.42700953 132.06057073 5.0722577 125.36128848 3.75 118.75 C3.57726562 117.94820313 3.40453125 117.14640625 3.2265625 116.3203125 C2.55320406 113.12453197 2 110.27811683 2 107 C-10.87 107 -23.74 107 -37 107 C-37.5775 110.63 -38.155 114.26 -38.75 118 C-39.97560015 125.40992721 -41.2260796 132.80965624 -42.9375 140.125 C-43.21464844 141.32382812 -43.49179688 142.52265625 -43.77734375 143.7578125 C-45.51075861 148.3544078 -48.00634612 151.81458418 -52.3125 154.375 C-57.39143339 155.5561473 -61.4041607 155.58309513 -66.25 153.8125 C-69.8177811 151.46100791 -72.09221079 148.81557843 -74 145 C-74.53633135 136.99986023 -73.65544236 129.38936602 -72.16748047 121.546875 C-71.97229324 120.47199829 -71.77710602 119.39712158 -71.57600403 118.28967285 C-70.9342664 114.77428097 -70.27663322 111.26210991 -69.6171875 107.75 C-69.16031616 105.28490852 -68.70387193 102.81973785 -68.24783325 100.35449219 C-67.2918592 95.20234498 -66.32736649 90.05187827 -65.35742188 84.90234375 C-64.36567916 79.63666847 -63.38848196 74.36853928 -62.42480469 69.09765625 C-61.25479825 62.70049072 -60.06688015 56.30691772 -58.8650856 49.91564941 C-58.41206845 47.49282093 -57.96476741 45.06891591 -57.52349472 42.6439209 C-51.61832676 10.30019597 -51.61832676 10.30019597 -40.6328125 2.26953125 C-39.80523437 1.78871094 -38.97765625 1.30789063 -38.125 0.8125 C-37.30257812 0.32394531 -36.48015625 -0.16460937 -35.6328125 -0.66796875 C-24.89830551 -6.09892852 -10.5297496 -6.02860664 0 0 Z M-21 27 C-22.85120677 29.77681016 -23.36802194 30.99741589 -23.96142578 34.13256836 C-24.12144073 34.96030258 -24.28145569 35.7880368 -24.44631958 36.64085388 C-24.61098724 37.53152054 -24.77565491 38.42218719 -24.9453125 39.33984375 C-25.12005096 40.2583461 -25.29478943 41.17684845 -25.474823 42.1231842 C-25.84277227 44.06514783 -26.20736363 46.00775026 -26.56884766 47.95092773 C-27.12247573 50.92394451 -27.68730992 53.89466484 -28.25390625 56.86523438 C-28.61004071 58.75247866 -28.96553102 60.63984465 -29.3203125 62.52734375 C-29.48902863 63.41598618 -29.65774475 64.3046286 -29.83157349 65.22019958 C-29.98528412 66.05108597 -30.13899475 66.88197235 -30.29736328 67.73803711 C-30.43345001 68.46623154 -30.56953674 69.19442596 -30.70974731 69.94468689 C-31.09322212 72.31416559 -31.09322212 72.31416559 -31 76 C-22.42 76 -13.84 76 -5 76 C-6.35115365 66.60948215 -8.05926383 57.36159316 -10.03173828 48.08496094 C-10.50644391 45.84458798 -10.97016753 43.60210503 -11.43359375 41.359375 C-11.73632063 39.92434009 -12.03968192 38.48943883 -12.34375 37.0546875 C-12.61380859 35.77062012 -12.88386719 34.48655273 -13.16210938 33.16357422 C-13.85129667 29.87293941 -13.85129667 29.87293941 -16 27 C-18.5 26.5 -18.5 26.5 -21 27 Z " fill="#000000" transform="translate(291,277)"/>
<path d="M0 0 C3.5677811 2.35149209 5.84221079 4.99692157 7.75 8.8125 C7.84907909 10.43562582 7.88505948 12.06278097 7.89044189 13.68891907 C7.89615204 14.71938354 7.90186218 15.74984802 7.90774536 16.8115387 C7.90942215 18.51418129 7.90942215 18.51418129 7.91113281 20.2512207 C7.91858017 22.03914536 7.91858017 22.03914536 7.92617798 23.8631897 C7.93829954 27.13810171 7.9457483 30.412978 7.95018864 33.68790841 C7.95311876 35.73392466 7.95722348 37.77993529 7.96169281 39.82594872 C7.97537028 46.22731034 7.98503533 52.62865914 7.9888947 59.03003436 C7.99337423 66.41956108 8.01091601 73.8089027 8.0398953 81.19837314 C8.06151575 86.90970085 8.0715992 92.62097651 8.07293582 98.33234471 C8.07398373 101.74359605 8.0798881 105.15467347 8.09775543 108.56588173 C8.1147732 112.37259638 8.11294577 116.17885865 8.10644531 119.9855957 C8.1156601 121.11461807 8.12487488 122.24364044 8.1343689 123.40687561 C8.12879974 124.44579956 8.12323059 125.48472351 8.11749268 126.55513 C8.11969252 127.90488655 8.11969252 127.90488655 8.1219368 129.2819109 C7.4815921 133.63869763 5.43990788 136.20672723 2.1875 139.0625 C-2.50867179 142.43411052 -6.57886868 142.42375966 -12.25 141.8125 C-16.05536193 140.51585816 -18.65263675 138.58907223 -21.125 135.375 C-23.25027443 130.53409714 -23.36998271 126.00843717 -23.34765625 120.76171875 C-23.3462413 120.10291214 -23.34482635 119.44410553 -23.34336853 118.76533508 C-23.337805 116.67684238 -23.32525947 114.58845989 -23.3125 112.5 C-23.30748028 111.07747551 -23.3029182 109.65494934 -23.29882812 108.23242188 C-23.28784757 104.75907923 -23.27060835 101.28580039 -23.25 97.8125 C-24.4052417 98.05484375 -25.5604834 98.2971875 -26.75073242 98.546875 C-31.04542934 99.4464313 -35.34146854 100.33942743 -39.63793945 101.23046875 C-41.49573308 101.61670578 -43.35316014 102.00471042 -45.21020508 102.39453125 C-47.88267655 102.9551996 -50.5564106 103.50945534 -53.23046875 104.0625 C-54.4713752 104.32498535 -54.4713752 104.32498535 -55.73735046 104.59277344 C-59.63592185 105.39286737 -63.24482878 106.03874092 -67.25 105.8125 C-66.91677734 106.72950684 -66.58355469 107.64651367 -66.24023438 108.59130859 C-64.99417277 112.03359081 -63.76929282 115.48311034 -62.55029297 118.93505859 C-62.02240866 120.42080008 -61.48899398 121.90458976 -60.94970703 123.38623047 C-54.85507818 140.15494028 -54.85507818 140.15494028 -56.25 147.8125 C-58.57968931 152.65108548 -61.41141452 155.48281069 -66.25 157.8125 C-71.740662 158.70189649 -77.01086897 158.48439142 -81.6770668 155.23004055 C-86.72094915 150.6844516 -88.56643467 142.4530335 -90.64160156 136.20288086 C-91.11064911 134.81348045 -91.11064911 134.81348045 -91.58917236 133.39601135 C-92.61256586 130.35851178 -93.62707709 127.31814154 -94.640625 124.27734375 C-95.35213715 122.15313002 -96.06387159 120.02899075 -96.77581787 117.90492249 C-98.26260114 113.46395869 -99.7446037 109.02143279 -101.22363281 104.57788086 C-103.11785059 98.88921768 -105.02712804 93.20573679 -106.94040298 87.52345943 C-108.41290341 83.14294106 -109.87577321 78.75925178 -111.33592987 74.37460518 C-112.03589837 72.27756937 -112.73922339 70.18165079 -113.44599152 68.0868969 C-114.4327013 65.15874333 -115.40594896 62.22643974 -116.37597656 59.29272461 C-116.66891602 58.432789 -116.96185547 57.57285339 -117.26367188 56.68685913 C-119.18961393 50.79643729 -120.29482979 45.71480497 -118.125 39.6875 C-115.55678923 35.74957682 -112.50774835 32.94137417 -108.25 30.8125 C-102.94919673 30.15394807 -98.34995735 30.38711755 -93.85762024 33.45333862 C-89.17357744 37.41345925 -87.28852411 44.01260777 -85.48828125 49.6796875 C-85.1340937 50.75997726 -85.1340937 50.75997726 -84.77275085 51.86209106 C-84.02874124 54.1349385 -83.29504617 56.41093478 -82.5625 58.6875 C-81.81759665 60.98490587 -81.07050909 63.28156087 -80.32011414 65.57717896 C-79.85578044 66.99941954 -79.39490538 68.42279484 -78.93782043 69.84738159 C-78.06300722 73.08898927 -78.06300722 73.08898927 -76.25 75.8125 C-74.6881867 75.60976886 -73.13703825 75.32448823 -71.59423828 75.00805664 C-70.60295929 74.80777359 -69.6116803 74.60749054 -68.59036255 74.40113831 C-67.51124603 74.17723923 -66.43212952 73.95334015 -65.3203125 73.72265625 C-63.66840408 73.38759315 -63.66840408 73.38759315 -61.98312378 73.04576111 C-58.44595372 72.32759189 -54.91041022 71.60177912 -51.375 70.875 C-47.84654679 70.15275849 -44.31777715 69.43216985 -40.78829956 68.71495056 C-38.58739783 68.26739858 -36.38712028 67.81676427 -34.18753052 67.36280823 C-33.1899472 67.15937302 -32.19236389 66.95593781 -31.16455078 66.74633789 C-30.28598419 66.56567276 -29.4074176 66.38500763 -28.50222778 66.1988678 C-26.25 65.8125 -26.25 65.8125 -23.25 65.8125 C-23.25999275 64.84316528 -23.25999275 64.84316528 -23.27018738 63.85424805 C-23.33675158 57.10551955 -23.38188808 50.35688491 -23.41479492 43.60791016 C-23.42984619 41.09192108 -23.45029181 38.57595808 -23.47631836 36.06005859 C-23.51286182 32.43580675 -23.52976353 28.811903 -23.54296875 25.1875 C-23.55845261 24.06947998 -23.57393646 22.95145996 -23.58988953 21.79956055 C-23.59130224 15.18781603 -23.55918231 8.43968856 -18.83317566 3.25952148 C-13.15125962 -1.70943745 -6.96545826 -2.54507129 0 0 Z " fill="#000000" transform="translate(215.25,97.1875)"/>
<path d="M0 0 C4.0647483 2.03237415 6.586519 4.18958571 9 8 C9.84375 11.00390625 9.84375 11.00390625 10.5 14.5625 C10.61964111 15.20437256 10.73928223 15.84624512 10.86254883 16.50756836 C11.25778945 18.66919298 11.63137356 20.83368211 12 23 C12.13970215 23.81210937 12.2794043 24.62421875 12.42333984 25.4609375 C12.85432977 27.99330771 13.27386149 30.52724064 13.6875 33.0625 C13.88472656 34.25758179 13.88472656 34.25758179 14.0859375 35.47680664 C14.20582031 36.23856201 14.32570312 37.00031738 14.44921875 37.78515625 C14.60910278 38.78881226 14.60910278 38.78881226 14.7722168 39.81274414 C15.05500733 42.52820009 15 45.2698587 15 48 C28.86 48 42.72 48 57 48 C57 44.04 57 40.08 57 36 C57.22039788 32.06913906 57.47840385 28.16971076 57.8125 24.25 C57.91788086 22.78626953 57.91788086 22.78626953 58.02539062 21.29296875 C58.62465646 14.16889649 59.38475178 7.0665629 64.9375 2 C69.90641392 -1.07398912 75.39297395 -1.19408888 81 0 C85.29880179 2.51653459 88.41031337 5.23094011 90 10 C90.571925 21.90987248 89.54963186 33.76433013 88.5390625 45.62109375 C88.38651466 47.4599331 88.2343723 49.29880613 88.08261108 51.13771057 C87.76572234 54.95928465 87.44417376 58.78042862 87.11914062 62.60131836 C86.70466108 67.47786699 86.30178497 72.35529331 85.90232277 77.23309231 C85.59114236 81.01772808 85.27398119 84.80184461 84.95502853 88.5858326 C84.80413858 90.38407497 84.65503809 92.18246851 84.50783157 93.98101616 C84.30114031 96.49497746 84.0864028 99.00813082 83.86962891 101.52124023 C83.81136429 102.24920807 83.75309967 102.9771759 83.69306946 103.72720337 C82.33141841 119.10085876 82.33141841 119.10085876 77 124 C72.20205854 126.62528873 68.44845861 127.5943773 63 127 C57.49530367 124.94923078 54.57988502 122.01714154 51.875 116.8515625 C50.71734779 113.07885663 50.95692355 109.6279476 51.25 105.75 C51.3008374 104.97092285 51.3516748 104.1918457 51.40405273 103.38916016 C51.97636184 95.2224652 52.96780479 87.11993563 54 79 C42.78 79 31.56 79 20 79 C20.66 81.97 21.32 84.94 22 88 C22.78637455 92.30050599 23.45352703 96.61769057 24.125 100.9375 C24.30675781 102.05318359 24.48851562 103.16886719 24.67578125 104.31835938 C27.61990681 123.2116764 27.61990681 123.2116764 23.39453125 129.52734375 C19.76461514 133.3606165 15.5169699 134.81691743 10.375 135.4375 C4.36790371 134.65880233 0.90516871 132.40288378 -2.88681602 127.70327759 C-4.70134638 124.92687319 -5.09801625 122.19893252 -5.6027832 118.94921875 C-5.71526303 118.26139816 -5.82774286 117.57357758 -5.94363117 116.86491394 C-6.18582195 115.36736101 -6.41897321 113.86832403 -6.64404678 112.36810303 C-7.00792389 109.94728356 -7.39705811 107.53164335 -7.79208374 105.11572266 C-8.67401806 99.68550649 -9.51655314 94.2495038 -10.35546875 88.8125 C-10.66501374 86.8142825 -10.97461048 84.81607302 -11.28425598 82.81787109 C-11.92732033 78.66321339 -12.5681916 74.508224 -13.20776367 70.35302734 C-14.025651 65.04202681 -14.85153262 59.73230205 -15.67931652 54.4228363 C-16.31909915 50.3107128 -16.95343547 46.19776256 -17.58626747 42.08456421 C-17.88850944 40.12594365 -18.19270876 38.16762403 -18.49895287 36.20962524 C-18.92584498 33.47653455 -19.3450603 30.74236808 -19.76245117 28.0078125 C-19.88864838 27.21079422 -20.01484558 26.41377594 -20.14486694 25.59260559 C-22.25172176 11.59992183 -22.25172176 11.59992183 -18.24609375 5.54296875 C-13.30348014 -0.57719543 -7.3829632 -1.09865524 0 0 Z " fill="#000000" transform="translate(109,273)"/>
<path d="M0 0 C4.5515158 5.29031257 4.74211029 9.93267151 4.34765625 16.56640625 C3.92666292 19.37217828 3.278201 22.08940079 2.57519531 24.83666992 C2.29222595 25.99461311 2.29222595 25.99461311 2.00354004 27.1759491 C1.3840558 29.69818423 0.74932542 32.21626925 0.11328125 34.734375 C-0.32612463 36.5006128 -0.76493728 38.26699829 -1.20318604 40.03352356 C-2.12102884 43.72261258 -3.04656499 47.40966266 -3.97753906 51.09545898 C-5.16739947 55.80916026 -6.33699898 60.52761713 -7.50078964 65.24781322 C-8.40173814 68.89170403 -9.31381381 72.53273958 -10.22919464 76.17302895 C-10.66487449 77.91160679 -11.09702391 79.65107345 -11.52550507 81.39143944 C-12.12643781 83.82541973 -12.74239546 86.25511992 -13.36230469 88.68432617 C-13.53493835 89.39667419 -13.70757202 90.10902222 -13.88543701 90.84295654 C-15.60969049 97.47452774 -18.68972177 102.98883306 -24.65234375 106.56640625 C-29.26031521 107.83338145 -32.79701913 107.80874822 -37.40234375 106.50390625 C-42.00929671 103.75745352 -44.91712023 100.7720768 -46.65234375 95.56640625 C-46.92193035 89.84310363 -46.29061052 84.95430681 -44.87988281 79.42553711 C-44.69123657 78.6553273 -44.50259033 77.88511749 -44.30822754 77.09156799 C-43.68759186 74.56901367 -43.05335135 72.05012688 -42.41796875 69.53125 C-41.97863127 67.76596164 -41.53981733 66.00054291 -41.10150146 64.23500061 C-40.1828994 60.54433017 -39.2574309 56.85546753 -38.32714844 53.16772461 C-37.13892852 48.4548253 -35.96879817 43.73765277 -34.80389786 39.01894283 C-33.90209667 35.37522715 -32.99027057 31.73407664 -32.07549286 28.09359932 C-31.64016461 26.3557603 -31.20801456 24.61712179 -30.77918243 22.87766838 C-30.17712876 20.44170454 -29.56150655 18.00955404 -28.94238281 15.57788086 C-28.76974915 14.86755707 -28.59711548 14.15723328 -28.41925049 13.42538452 C-26.85452001 7.38195762 -24.70450225 2.26166762 -19.77734375 -1.80859375 C-13.0619878 -5.30057884 -5.93144346 -5.14619326 0 0 Z " fill="#000000" transform="translate(403.65234375,260.43359375)"/>
<path d="M0 0 C4.30900101 2.08052624 6.48410723 4.88333187 8.3515625 9.24609375 C10.45206273 16.07271949 8.79474325 22.98352412 6.0078125 29.37890625 C3.22113736 33.72708039 0.21281099 37.23634561 -4.9921875 38.37890625 C-10.82283147 39.03897915 -15.36119463 37.95511766 -19.9921875 34.37890625 C-23.23169241 30.27734822 -24.61810507 25.85396801 -24.31640625 20.58984375 C-23.34007586 13.9319763 -22.13047756 7.07677145 -16.9921875 2.37890625 C-11.69542925 -1.19332605 -6.08553035 -1.89725358 0 0 Z " fill="#000000" transform="translate(366.9921875,385.62109375)"/>
</svg>
